<svg width="26" height="31" viewBox="0 0 26 31" fill="none" xmlns="http://www.w3.org/2000/svg">
<g clip-path="url(#clip0_1_108)">
<path d="M6.40633 4.27738C6.40633 4.27738 6.89879 3.98999 7.88373 3.41521C8.86866 2.84044 10.5274 2.55305 12.86 2.55305C15.1926 2.55305 17.3438 3.12783 19.3137 4.27738C21.2836 5.42693 22.8433 6.98664 23.9928 8.95651C25.1424 10.9264 25.7172 13.0776 25.7172 15.4102C25.7172 17.7428 25.1424 19.894 23.9928 21.8639C22.8433 23.8337 21.2836 25.3935 19.3137 26.543C17.3438 27.6926 15.1926 28.2673 12.86 28.2673C10.5274 28.2673 8.37619 27.6926 6.40633 26.543C4.43646 25.3935 2.87675 23.8337 1.7272 21.8639C0.577645 19.894 0.00286865 17.7428 0.00286865 15.4102C0.00286865 13.0776 0.577645 10.9264 1.7272 8.95651C2.87675 6.98664 4.43646 5.42693 6.40633 4.27738ZM17.4471 11.2751C17.4247 11.2863 17.3717 11.3393 17.288 11.4342C17.2043 11.5291 17.129 11.5821 17.062 11.5932C17.0843 11.5932 17.1095 11.5653 17.1374 11.5095C17.1653 11.4537 17.1932 11.3923 17.2211 11.3254C17.249 11.2584 17.2685 11.2193 17.2797 11.2082C17.3466 11.1301 17.4694 11.0464 17.648 10.9571C17.8042 10.8901 18.0944 10.8231 18.5185 10.7562C18.898 10.6669 19.1826 10.7283 19.3723 10.9403C19.35 10.918 19.403 10.8455 19.5313 10.7227C19.6597 10.5999 19.7406 10.533 19.7741 10.5218C19.8076 10.4995 19.8913 10.4744 20.0252 10.4465C20.1591 10.4186 20.2428 10.3767 20.2763 10.3209L20.3098 9.9526C20.1759 9.96376 20.0782 9.9247 20.0168 9.83541C19.9554 9.74613 19.9192 9.62894 19.908 9.48385C19.908 9.50617 19.8745 9.55082 19.8076 9.61778C19.8076 9.53966 19.7824 9.49501 19.7322 9.48385C19.682 9.47269 19.6178 9.47827 19.5397 9.50059C19.4616 9.52291 19.4114 9.5285 19.389 9.51733C19.2774 9.48385 19.1937 9.442 19.1379 9.39178C19.0821 9.34155 19.0375 9.24948 19.004 9.11555C18.9705 8.98162 18.9482 8.89791 18.937 8.86443C18.9147 8.80863 18.8617 8.74725 18.778 8.68028C18.6943 8.61332 18.6413 8.55751 18.6189 8.51287C18.6078 8.49055 18.5938 8.45986 18.5771 8.42079C18.5603 8.38173 18.5436 8.34546 18.5269 8.31198C18.5101 8.2785 18.4878 8.2478 18.4599 8.2199C18.432 8.192 18.4013 8.17805 18.3678 8.17805C18.3343 8.17805 18.2953 8.20595 18.2506 8.26175C18.206 8.31756 18.1641 8.37336 18.1251 8.42916C18.086 8.48497 18.0609 8.51287 18.0497 8.51287C18.0163 8.49055 17.9828 8.48218 17.9493 8.48776C17.9158 8.49334 17.8907 8.49892 17.874 8.5045C17.8572 8.51008 17.8321 8.52682 17.7986 8.55472C17.7651 8.58262 17.7372 8.60216 17.7149 8.61332C17.6814 8.63564 17.634 8.65238 17.5726 8.66354C17.5112 8.6747 17.4638 8.68586 17.4303 8.69702C17.5977 8.64122 17.5922 8.57983 17.4136 8.51287C17.302 8.46823 17.2127 8.45149 17.1457 8.46265C17.2462 8.418 17.288 8.35104 17.2713 8.26175C17.2545 8.17247 17.2071 8.09434 17.129 8.02738H17.2127C17.2015 7.98274 17.1541 7.9353 17.0704 7.88508C16.9867 7.83486 16.889 7.78742 16.7774 7.74278C16.6658 7.69814 16.5933 7.66466 16.5598 7.64233C16.4705 7.58653 16.2808 7.53352 15.9906 7.48329C15.7004 7.43307 15.5163 7.43028 15.4381 7.47492C15.3823 7.54189 15.3572 7.60048 15.3628 7.65071C15.3684 7.70093 15.3907 7.77905 15.4298 7.88508C15.4688 7.99111 15.4884 8.06086 15.4884 8.09434C15.4995 8.16131 15.4688 8.23385 15.3963 8.31198C15.3237 8.3901 15.2875 8.45707 15.2875 8.51287C15.2875 8.591 15.3656 8.67749 15.5218 8.77236C15.6781 8.86722 15.7339 8.9872 15.6893 9.13229C15.6558 9.22157 15.5665 9.31086 15.4214 9.40015C15.2763 9.48943 15.187 9.5564 15.1535 9.60104C15.0977 9.69032 15.0894 9.79356 15.1284 9.91075C15.1675 10.0279 15.2261 10.12 15.3042 10.187C15.3265 10.2093 15.3349 10.2316 15.3293 10.2539C15.3237 10.2763 15.3042 10.3014 15.2707 10.3293C15.2372 10.3572 15.2066 10.3795 15.1786 10.3962C15.1507 10.413 15.1145 10.4325 15.0698 10.4548L15.0196 10.4883C14.8968 10.5441 14.7824 10.5106 14.6764 10.3879C14.5704 10.2651 14.4951 10.12 14.4504 9.9526C14.3723 9.67358 14.283 9.50617 14.1826 9.45037C13.9259 9.36108 13.764 9.36666 13.6971 9.46711C13.6413 9.32202 13.4125 9.17693 13.0107 9.03184C12.7317 8.9314 12.408 8.90907 12.0397 8.96488C12.1067 8.95372 12.1067 8.87001 12.0397 8.71376C11.9616 8.54635 11.8555 8.47939 11.7216 8.51287C11.7551 8.44591 11.7774 8.34825 11.7886 8.2199C11.7997 8.09155 11.8053 8.01622 11.8053 7.9939C11.8388 7.84881 11.9058 7.72046 12.0062 7.60885C12.0174 7.59769 12.0564 7.55026 12.1234 7.46655C12.1904 7.38285 12.2434 7.30751 12.2824 7.24055C12.3215 7.17358 12.3243 7.1401 12.2908 7.1401C12.6814 7.18475 12.9605 7.12336 13.1279 6.95595C13.1837 6.90015 13.2478 6.80528 13.3204 6.67135C13.3929 6.53742 13.4515 6.44256 13.4962 6.38675C13.5966 6.31979 13.6747 6.2891 13.7305 6.29468C13.7864 6.30026 13.8673 6.33095 13.9733 6.38675C14.0793 6.44256 14.1602 6.47046 14.216 6.47046C14.3723 6.48162 14.4588 6.42024 14.4755 6.28631C14.4923 6.15238 14.4504 6.04077 14.35 5.95149C14.4839 5.96265 14.5006 5.86778 14.4002 5.66689C14.3555 5.58876 14.3109 5.53854 14.2663 5.51622C14.1323 5.47158 13.9817 5.49948 13.8143 5.59992C13.725 5.64457 13.7361 5.68921 13.8477 5.73385C13.8366 5.72269 13.7836 5.78129 13.6887 5.90963C13.5938 6.03798 13.5018 6.13564 13.4125 6.2026C13.3232 6.26957 13.2339 6.24166 13.1446 6.1189C13.1334 6.10774 13.1028 6.0324 13.0525 5.89289C13.0023 5.75338 12.9493 5.67805 12.8935 5.66689C12.8042 5.66689 12.7149 5.75059 12.6256 5.918C12.6591 5.82872 12.5977 5.74501 12.4415 5.66689C12.2852 5.58876 12.1513 5.54412 12.0397 5.53296C12.2518 5.39903 12.2071 5.24836 11.9058 5.08095C11.8276 5.03631 11.7132 5.00841 11.5626 4.99725C11.4119 4.98608 11.3031 5.00841 11.2361 5.06421C11.1803 5.14233 11.1496 5.20651 11.1441 5.25673C11.1385 5.30696 11.1664 5.3516 11.2278 5.39066C11.2891 5.42972 11.3477 5.46041 11.4035 5.48274C11.4593 5.50506 11.5235 5.52738 11.5961 5.5497C11.6686 5.57202 11.716 5.58876 11.7384 5.59992C11.8946 5.71153 11.9393 5.78966 11.8723 5.8343C11.85 5.84546 11.8025 5.86499 11.73 5.89289C11.6574 5.9208 11.5933 5.94591 11.5375 5.96823C11.4817 5.99055 11.4482 6.01287 11.437 6.03519C11.4035 6.07983 11.4035 6.15796 11.437 6.26957C11.4705 6.38117 11.4593 6.4593 11.4035 6.50394C11.3477 6.44814 11.2975 6.35048 11.2529 6.21097C11.2082 6.07146 11.1692 5.97939 11.1357 5.93475C11.2138 6.03519 11.0743 6.06867 10.7172 6.03519L10.5497 6.01845C10.5051 6.01845 10.4158 6.02961 10.2819 6.05193C10.148 6.07425 10.0336 6.07983 9.93869 6.06867C9.84383 6.05751 9.76849 6.01287 9.71269 5.93475C9.66805 5.84546 9.66805 5.73385 9.71269 5.59992C9.72385 5.55528 9.74617 5.54412 9.77965 5.56644C9.73501 5.53296 9.67363 5.47995 9.5955 5.4074C9.51738 5.33486 9.46157 5.28742 9.42809 5.2651C8.9147 5.43251 8.39015 5.66131 7.85443 5.95149C7.9214 5.96265 7.98836 5.95707 8.05532 5.93475C8.11113 5.91242 8.18367 5.87615 8.27296 5.82593C8.36224 5.77571 8.41805 5.74501 8.44037 5.73385C8.81983 5.5776 9.05421 5.53854 9.14349 5.61666L9.2272 5.53296C9.38345 5.71153 9.49506 5.85104 9.56202 5.95149C9.4839 5.90684 9.31648 5.90126 9.05979 5.93475C8.83657 6.00171 8.71381 6.06867 8.69148 6.13564C8.76961 6.26957 8.79751 6.37001 8.77519 6.43698C8.73055 6.4035 8.66637 6.34769 8.58267 6.26957C8.49896 6.19144 8.41805 6.13006 8.33992 6.08541C8.2618 6.04077 8.17809 6.01287 8.08881 6.00171C7.91023 6.00171 7.78747 6.00729 7.7205 6.01845C6.09104 6.91131 4.77965 8.15015 3.78635 9.73497C3.86448 9.81309 3.93144 9.85774 3.98724 9.8689C4.03189 9.88006 4.05979 9.93028 4.07095 10.0196C4.08211 10.1089 4.09606 10.1702 4.1128 10.2037C4.12954 10.2372 4.19372 10.2205 4.30532 10.1535C4.40577 10.2428 4.42251 10.3488 4.35555 10.4716C4.36671 10.4604 4.61224 10.6111 5.09215 10.9236C5.30421 11.1133 5.4214 11.2305 5.44372 11.2751C5.4772 11.3979 5.4214 11.4984 5.27631 11.5765C5.26515 11.5542 5.21492 11.5039 5.12564 11.4258C5.03635 11.3477 4.98613 11.3254 4.97497 11.3589C4.94148 11.4147 4.94427 11.5179 4.98334 11.6686C5.0224 11.8192 5.08099 11.889 5.15912 11.8778C5.08099 11.8778 5.02798 11.9671 5.00008 12.1457C4.97218 12.3243 4.95823 12.5224 4.95823 12.74C4.95823 12.9576 4.95265 13.0888 4.94148 13.1334L4.97497 13.1501C4.94148 13.2841 4.97218 13.4766 5.06704 13.7277C5.16191 13.9788 5.28189 14.0876 5.42698 14.0542C5.28189 14.0876 5.39349 14.3276 5.7618 14.774C5.82876 14.8633 5.8734 14.9135 5.89573 14.9247C5.92921 14.947 5.99617 14.9889 6.09662 15.0503C6.19706 15.1116 6.28077 15.1674 6.34773 15.2177C6.4147 15.2679 6.4705 15.3265 6.51515 15.3935C6.55979 15.4493 6.61559 15.5748 6.68256 15.7701C6.74952 15.9654 6.82765 16.0966 6.91693 16.1635C6.89461 16.2305 6.94762 16.3421 7.07597 16.4984C7.20432 16.6546 7.26291 16.783 7.25175 16.8834C7.24059 16.8834 7.22664 16.889 7.2099 16.9001C7.19316 16.9113 7.17921 16.9169 7.16805 16.9169C7.20153 16.995 7.28802 17.0731 7.42753 17.1513C7.56704 17.2294 7.65354 17.3019 7.68702 17.3689C7.69818 17.4024 7.70934 17.4582 7.7205 17.5363C7.73166 17.6144 7.7484 17.6758 7.77073 17.7205C7.79305 17.7651 7.83769 17.7763 7.90465 17.7539C7.92698 17.5307 7.79305 17.1847 7.50287 16.716C7.33546 16.437 7.24059 16.2751 7.21827 16.2305C7.18479 16.1747 7.1541 16.0882 7.12619 15.971C7.09829 15.8538 7.07318 15.7729 7.05086 15.7283C7.07318 15.7283 7.10666 15.7366 7.15131 15.7534C7.19595 15.7701 7.24338 15.7897 7.2936 15.812C7.34383 15.8343 7.38568 15.8566 7.41916 15.8789C7.45265 15.9013 7.46381 15.918 7.45265 15.9292C7.41916 16.0073 7.43032 16.1049 7.48613 16.2221C7.54193 16.3393 7.6089 16.4426 7.68702 16.5318C7.76515 16.6211 7.86001 16.7272 7.97162 16.8499C8.08323 16.9727 8.15019 17.0452 8.17251 17.0676C8.23948 17.1345 8.3176 17.2433 8.40689 17.394C8.49617 17.5447 8.49617 17.62 8.40689 17.62C8.50733 17.62 8.61894 17.6786 8.74171 17.7958C8.86448 17.913 8.95934 18.0218 9.02631 18.1222C9.08211 18.2115 9.12675 18.3566 9.16023 18.5575C9.19372 18.7584 9.22162 18.8923 9.24394 18.9593C9.26626 19.0374 9.31369 19.1128 9.38624 19.1853C9.45878 19.2578 9.52854 19.3109 9.5955 19.3443C9.66247 19.3778 9.75175 19.4225 9.86336 19.4783C9.97497 19.5341 10.0475 19.5731 10.081 19.5955C10.1368 19.6178 10.24 19.6764 10.3907 19.7712C10.5414 19.8661 10.6614 19.9303 10.7506 19.9638C10.8622 20.0084 10.9515 20.0307 11.0185 20.0307C11.0855 20.0307 11.1664 20.0168 11.2612 19.9889C11.3561 19.961 11.4314 19.9414 11.4872 19.9303C11.6547 19.908 11.8165 19.9917 11.9727 20.1814C12.129 20.3711 12.2462 20.4883 12.3243 20.533C12.7261 20.745 13.033 20.8064 13.2451 20.7171C13.2227 20.7283 13.2255 20.7701 13.2534 20.8427C13.2813 20.9152 13.326 21.0017 13.3874 21.1022C13.4487 21.2026 13.499 21.2835 13.538 21.3449C13.5771 21.4063 13.6078 21.4537 13.6301 21.4872C13.6859 21.5542 13.7864 21.6379 13.9314 21.7383C14.0765 21.8388 14.177 21.9225 14.2328 21.9894C14.2997 21.9448 14.3388 21.8946 14.35 21.8388C14.3165 21.928 14.3555 22.0397 14.4672 22.1736C14.5788 22.3075 14.6792 22.3633 14.7685 22.341C14.9247 22.3075 15.0029 22.1289 15.0029 21.8053C14.6569 21.9727 14.3834 21.8722 14.1826 21.5039C14.1826 21.4928 14.1686 21.4621 14.1407 21.4119C14.1128 21.3616 14.0905 21.3142 14.0737 21.2696C14.057 21.2249 14.043 21.1775 14.0319 21.1273C14.0207 21.077 14.0207 21.0352 14.0319 21.0017C14.043 20.9682 14.0709 20.9515 14.1156 20.9515C14.216 20.9515 14.2718 20.932 14.283 20.8929C14.2942 20.8538 14.283 20.7841 14.2495 20.6836C14.216 20.5832 14.1937 20.5106 14.1826 20.466C14.1714 20.3767 14.11 20.2651 13.9984 20.1312C13.8868 19.9972 13.8198 19.9135 13.7975 19.8801C13.7417 19.9805 13.6524 20.0251 13.5297 20.014C13.4069 20.0028 13.3176 19.9526 13.2618 19.8633C13.2618 19.8745 13.2534 19.9052 13.2367 19.9554C13.2199 20.0056 13.2116 20.0419 13.2116 20.0642C13.0665 20.0642 12.9828 20.0586 12.9605 20.0475C12.9716 20.014 12.9856 19.9163 13.0023 19.7545C13.0191 19.5927 13.0386 19.4671 13.0609 19.3778C13.0721 19.3332 13.1028 19.2662 13.153 19.1769C13.2032 19.0876 13.2451 19.0067 13.2785 18.9342C13.312 18.8616 13.3343 18.7919 13.3455 18.7249C13.3567 18.658 13.3316 18.6049 13.2702 18.5659C13.2088 18.5268 13.1111 18.5129 12.9772 18.524C12.7651 18.5352 12.6201 18.6468 12.5419 18.8589C12.5308 18.8923 12.514 18.9509 12.4917 19.0346C12.4694 19.1183 12.4415 19.1825 12.408 19.2272C12.3745 19.2718 12.3243 19.3109 12.2573 19.3443C12.1792 19.3778 12.0453 19.389 11.8555 19.3778C11.6658 19.3667 11.5319 19.3388 11.4538 19.2941C11.3087 19.2048 11.1831 19.043 11.0771 18.8086C10.9711 18.5743 10.918 18.3678 10.918 18.1892C10.918 18.0776 10.932 17.9297 10.9599 17.7456C10.9878 17.5614 11.0045 17.4219 11.0101 17.327C11.0157 17.2322 10.985 17.0955 10.918 16.9169C10.9515 16.8946 11.0018 16.8416 11.0687 16.7578C11.1357 16.6741 11.1915 16.6155 11.2361 16.5821C11.2584 16.5709 11.2836 16.5625 11.3115 16.557C11.3394 16.5514 11.3645 16.5514 11.3868 16.557C11.4091 16.5625 11.4314 16.5542 11.4538 16.5318C11.4761 16.5095 11.4928 16.476 11.504 16.4314C11.4928 16.4202 11.4705 16.4035 11.437 16.3812C11.4035 16.3477 11.3812 16.331 11.3701 16.331C11.4482 16.3644 11.6072 16.3561 11.8472 16.3058C12.0871 16.2556 12.2406 16.264 12.3076 16.331C12.475 16.4537 12.5977 16.4426 12.6759 16.2975C12.6759 16.2863 12.6619 16.2333 12.634 16.1384C12.6061 16.0436 12.6033 15.9682 12.6256 15.9124C12.6814 16.2138 12.8433 16.264 13.1111 16.0631C13.1446 16.0966 13.2311 16.1245 13.3706 16.1468C13.5101 16.1691 13.6078 16.197 13.6636 16.2305C13.6971 16.2528 13.7361 16.2835 13.7808 16.3226C13.8254 16.3616 13.8561 16.3868 13.8728 16.3979C13.8896 16.4091 13.9175 16.4063 13.9566 16.3895C13.9956 16.3728 14.043 16.3365 14.0989 16.2807C14.2105 16.437 14.2774 16.5709 14.2997 16.6825C14.4225 17.1289 14.5285 17.3745 14.6178 17.4191C14.6959 17.4526 14.7573 17.4638 14.802 17.4526C14.8466 17.4414 14.8717 17.3884 14.8773 17.2936C14.8829 17.1987 14.8829 17.1206 14.8773 17.0592C14.8717 16.9978 14.8634 16.928 14.8522 16.8499L14.8355 16.716C14.8355 16.6155 14.8355 16.5151 14.8355 16.4147L14.8187 16.2807C14.6513 16.2472 14.5481 16.1803 14.509 16.0798C14.4699 15.9794 14.4783 15.8762 14.5341 15.7701C14.5899 15.6641 14.6736 15.5609 14.7852 15.4604C14.7964 15.4493 14.841 15.4297 14.9192 15.4018C14.9973 15.3739 15.0838 15.3376 15.1786 15.293C15.2735 15.2484 15.3433 15.2037 15.3879 15.1591C15.6223 14.947 15.706 14.7517 15.639 14.5731C15.7172 14.5731 15.7785 14.5229 15.8232 14.4225C15.812 14.4225 15.7841 14.4057 15.7395 14.3722C15.6948 14.3388 15.653 14.3109 15.6139 14.2885C15.5749 14.2662 15.5497 14.2551 15.5386 14.2551C15.639 14.1993 15.6502 14.11 15.5721 13.9872C15.6279 13.9537 15.6697 13.8923 15.6976 13.803C15.7255 13.7138 15.7674 13.658 15.8232 13.6356C15.9236 13.7696 16.0408 13.7807 16.1747 13.6691C16.264 13.5798 16.2696 13.4905 16.1915 13.4013C16.2473 13.3231 16.3617 13.2645 16.5347 13.2255C16.7077 13.1864 16.8109 13.1334 16.8444 13.0664C16.9225 13.0888 16.9672 13.0776 16.9783 13.033C16.9895 12.9883 16.9951 12.9214 16.9951 12.8321C16.9951 12.7428 17.0118 12.6758 17.0453 12.6312C17.0899 12.5754 17.1736 12.5251 17.2964 12.4805C17.4192 12.4359 17.4917 12.408 17.514 12.3968L17.7986 12.2126C17.8321 12.168 17.8321 12.1457 17.7986 12.1457C17.9995 12.168 18.1725 12.1066 18.3176 11.9615C18.4292 11.8388 18.3957 11.7272 18.2172 11.6267C18.2506 11.5597 18.2339 11.5067 18.1669 11.4677C18.1 11.4286 18.0163 11.3979 17.9158 11.3756C17.9493 11.3644 18.0135 11.3616 18.1083 11.3672C18.2032 11.3728 18.2618 11.3644 18.2841 11.3421C18.4515 11.2305 18.4125 11.1412 18.1669 11.0743C17.9772 11.0184 17.7372 11.0854 17.4471 11.2751ZM14.7183 25.9571C17.0174 25.5553 18.9761 24.5006 20.5944 22.793C20.5609 22.7595 20.4911 22.7344 20.3851 22.7177C20.2791 22.7009 20.2093 22.6814 20.1759 22.6591C19.975 22.581 19.841 22.5363 19.7741 22.5251C19.7852 22.447 19.7713 22.3745 19.7322 22.3075C19.6932 22.2405 19.6485 22.1903 19.5983 22.1568C19.5481 22.1234 19.4783 22.0787 19.389 22.0229C19.2997 21.9671 19.2384 21.928 19.2049 21.9057C19.1826 21.8834 19.1435 21.8499 19.0877 21.8053C19.0319 21.7606 18.9928 21.7299 18.9705 21.7132C18.9482 21.6965 18.9063 21.6714 18.8449 21.6379C18.7836 21.6044 18.7361 21.5932 18.7026 21.6044C18.6692 21.6155 18.6134 21.6211 18.5352 21.6211L18.485 21.6379C18.4515 21.649 18.4208 21.663 18.3929 21.6797C18.365 21.6965 18.3343 21.7132 18.3009 21.7299C18.2674 21.7467 18.2451 21.7634 18.2339 21.7802C18.2227 21.7969 18.2227 21.8109 18.2339 21.822C17.9995 21.6323 17.7986 21.5095 17.6312 21.4537C17.5754 21.4426 17.514 21.4119 17.4471 21.3616C17.3801 21.3114 17.3215 21.2724 17.2713 21.2445C17.2211 21.2166 17.1653 21.2082 17.1039 21.2193C17.0425 21.2305 16.9783 21.2696 16.9114 21.3365C16.8555 21.3923 16.8221 21.476 16.8109 21.5876C16.7997 21.6993 16.7886 21.7718 16.7774 21.8053C16.6993 21.7495 16.6993 21.6518 16.7774 21.5123C16.8555 21.3728 16.8667 21.2696 16.8109 21.2026C16.7774 21.1356 16.7188 21.1105 16.6351 21.1273C16.5514 21.144 16.4845 21.1691 16.4342 21.2026C16.384 21.2361 16.3198 21.2835 16.2417 21.3449C16.1636 21.4063 16.1134 21.4426 16.091 21.4537C16.0687 21.4649 16.0213 21.4956 15.9487 21.5458C15.8762 21.596 15.8288 21.6379 15.8064 21.6714C15.773 21.716 15.7395 21.783 15.706 21.8722C15.6725 21.9615 15.6446 22.0229 15.6223 22.0564C15.6 22.0118 15.5358 21.9755 15.4298 21.9476C15.3237 21.9197 15.2707 21.889 15.2707 21.8555C15.293 21.9671 15.3154 22.1624 15.3377 22.4414C15.36 22.7205 15.3879 22.9325 15.4214 23.0776C15.4995 23.4236 15.4326 23.6914 15.2205 23.8812C14.9192 24.1602 14.7573 24.3834 14.735 24.5508C14.6904 24.7964 14.7573 24.9414 14.9359 24.9861C14.9359 25.0642 14.8913 25.1786 14.802 25.3293C14.7127 25.4799 14.6736 25.5999 14.6848 25.6892C14.6848 25.7562 14.6959 25.8455 14.7183 25.9571Z" fill="#8256FF"/>
</g>
<defs>
<clipPath id="clip0_1_108">
<rect width="25.72" height="30" fill="white" transform="matrix(1 0 0 -1 0 30.4102)"/>
</clipPath>
</defs>
</svg>
