<svg width="28" height="31" viewBox="0 0 28 31" fill="none" xmlns="http://www.w3.org/2000/svg">
<g clip-path="url(#clip0_1_44)">
<path d="M27.44 8.09223C27.8865 8.72839 27.9869 9.44826 27.7414 10.2518L23.1376 25.4192C22.9255 26.1335 22.4986 26.7334 21.8569 27.2189C21.2151 27.7044 20.5315 27.9471 19.8061 27.9471H4.35409C3.49471 27.9471 2.66603 27.6486 1.86804 27.0515C1.07005 26.4544 0.514803 25.7206 0.202303 24.85C-0.065554 24.1023 -0.0767148 23.3936 0.168821 22.7239C0.168821 22.6793 0.185562 22.5286 0.219044 22.2719C0.252526 22.0152 0.274848 21.8088 0.286008 21.6525C0.297169 21.5632 0.280428 21.4432 0.235785 21.2926C0.191142 21.1419 0.174401 21.0331 0.185562 20.9661C0.207883 20.8433 0.252526 20.7262 0.319491 20.6146C0.386455 20.5029 0.478531 20.3718 0.595718 20.2211C0.712906 20.0705 0.804982 19.9393 0.871946 19.8277C1.12864 19.4036 1.37976 18.893 1.62529 18.2959C1.87083 17.6988 2.03824 17.1882 2.12753 16.7641C2.16101 16.6525 2.1638 16.4851 2.1359 16.2619C2.108 16.0387 2.1052 15.8824 2.12753 15.7931C2.16101 15.6704 2.25587 15.5141 2.41212 15.3244C2.56837 15.1346 2.66324 15.0063 2.69672 14.9393C2.9311 14.5375 3.16547 14.0242 3.39985 13.3992C3.63422 12.7742 3.77373 12.2719 3.81837 11.8925C3.82954 11.792 3.81558 11.6134 3.77652 11.3567C3.73746 11.1 3.74025 10.9438 3.78489 10.888C3.82954 10.7429 3.9523 10.5727 4.1532 10.3774C4.35409 10.1821 4.47686 10.0565 4.5215 10.0007C4.73355 9.71054 4.97072 9.239 5.23299 8.5861C5.49527 7.93319 5.64873 7.39469 5.69337 6.97058C5.70454 6.8813 5.68779 6.739 5.64315 6.54368C5.59851 6.34837 5.58735 6.20049 5.60967 6.10005C5.63199 6.01076 5.68221 5.91031 5.76034 5.79871C5.83846 5.6871 5.93891 5.55875 6.06168 5.41366C6.18445 5.26857 6.27931 5.15139 6.34628 5.0621C6.43556 4.92817 6.52764 4.75797 6.6225 4.5515C6.71737 4.34502 6.80107 4.14971 6.87362 3.96556C6.94616 3.78141 7.03545 3.58051 7.14148 3.36288C7.2475 3.14525 7.35632 2.96667 7.46793 2.82717C7.57954 2.68766 7.72741 2.55652 7.91157 2.43375C8.09572 2.31098 8.29661 2.24681 8.51425 2.24123C8.73188 2.23565 8.99695 2.26634 9.30945 2.33331L9.2927 2.38353C9.71681 2.28308 10.0014 2.23286 10.1465 2.23286H22.8865C23.7123 2.23286 24.3485 2.54536 24.7949 3.17036C25.2414 3.79536 25.3418 4.52081 25.0963 5.3467L20.5092 20.5141C20.1074 21.8422 19.7084 22.6988 19.3122 23.0839C18.916 23.4689 18.199 23.6614 17.161 23.6614H2.61302C2.31168 23.6614 2.09962 23.7451 1.97686 23.9125C1.85409 24.0911 1.84851 24.3311 1.96012 24.6324C2.22797 25.4137 3.03154 25.8043 4.37083 25.8043H19.8228C20.1465 25.8043 20.459 25.7178 20.7603 25.5448C21.0617 25.3718 21.257 25.1402 21.3463 24.85L26.3686 8.32661C26.4467 8.08107 26.4746 7.76299 26.4523 7.37237C26.8764 7.53978 27.2057 7.77973 27.44 8.09223ZM9.62753 8.12572C9.58288 8.27081 9.59404 8.39636 9.66101 8.50239C9.72797 8.60842 9.83958 8.66143 9.99583 8.66143H20.1744C20.3195 8.66143 20.4618 8.60842 20.6013 8.50239C20.7408 8.39636 20.8329 8.27081 20.8775 8.12572L21.2291 7.05429C21.2737 6.9092 21.2626 6.78364 21.1956 6.67761C21.1286 6.57159 21.017 6.51857 20.8608 6.51857H10.6822C10.5371 6.51857 10.3948 6.57159 10.2553 6.67761C10.1158 6.78364 10.0237 6.9092 9.97909 7.05429L9.62753 8.12572ZM8.23802 12.4114C8.19337 12.5565 8.20453 12.6821 8.2715 12.7881C8.33846 12.8941 8.45007 12.9471 8.60632 12.9471H18.7849C18.93 12.9471 19.0723 12.8941 19.2118 12.7881C19.3513 12.6821 19.4434 12.5565 19.488 12.4114L19.8396 11.34C19.8842 11.1949 19.8731 11.0694 19.8061 10.9633C19.7391 10.8573 19.6275 10.8043 19.4713 10.8043H9.2927C9.14762 10.8043 9.00532 10.8573 8.86581 10.9633C8.7263 11.0694 8.63422 11.1949 8.58958 11.34L8.23802 12.4114Z" fill="white"/>
</g>
<defs>
<clipPath id="clip0_1_44">
<rect width="27.86" height="30" fill="white" transform="matrix(1 0 0 -1 0 30.09)"/>
</clipPath>
</defs>
</svg>
