<svg width="60" height="61" viewBox="0 0 60 61" fill="none" xmlns="http://www.w3.org/2000/svg">
<rect x="1" y="1.02979" width="58" height="58" rx="29" stroke="#8256FF" stroke-width="2"/>
<g clip-path="url(#clip0_1_333)">
<path d="M42.6562 26.6353C40.957 20.3657 35.8594 16.0298 30 16.0298C24.1992 16.0298 19.043 20.3657 17.3438 26.6353C16.0547 26.811 15 27.9243 15 29.272V36.3032C15 37.4165 15.7031 38.354 16.6406 38.7642C16.9922 41.8696 19.5703 44.272 22.7344 44.272H27.5391C27.8906 45.2681 28.8281 46.0298 30 46.0298H35.2734C36.7383 46.0298 37.9688 44.8579 37.9688 43.3931C37.9688 41.9282 36.7383 40.7563 35.2734 40.7563H30C28.8281 40.7563 27.8906 41.4595 27.5391 42.5142H22.7344C20.625 42.5142 18.8086 40.9907 18.3984 38.9985H20.2734V37.1821H22.0312V28.3931H20.2734V26.6353H19.2188C20.8594 21.4204 25.1367 17.7876 30 17.7876C34.8633 17.7876 39.1406 21.3618 40.7812 26.6353H39.7266V28.3931H37.9688V37.1821H39.7266V38.9985H42.3633C43.8281 38.9985 45 37.7681 45 36.3032V29.272C45 27.9243 43.9453 26.811 42.6562 26.6353ZM30 42.5142H35.2734C35.8008 42.5142 36.1523 42.9243 36.1523 43.3931C36.1523 43.8618 35.8008 44.272 35.2734 44.272H30C29.5312 44.272 29.1211 43.8618 29.1211 43.3931C29.1211 42.9243 29.5312 42.5142 30 42.5142ZM18.5156 37.1821H17.6367C17.168 37.1821 16.7578 36.8306 16.7578 36.3032V29.272C16.7578 28.8032 17.168 28.3931 17.6367 28.3931H18.5156V37.1821ZM43.2422 36.3032C43.2422 36.8306 42.832 37.1821 42.3633 37.1821H41.4844V28.3931H42.3633C42.832 28.3931 43.2422 28.8032 43.2422 29.272V36.3032Z" fill="#8256FF"/>
</g>
<defs>
<clipPath id="clip0_1_333">
<rect width="30" height="30" fill="white" transform="matrix(1 0 0 -1 15 46.0298)"/>
</clipPath>
</defs>
</svg>
