<svg width="60" height="61" viewBox="0 0 60 61" fill="none" xmlns="http://www.w3.org/2000/svg">
<rect x="1" y="1.02979" width="58" height="58" rx="29" stroke="#8256FF" stroke-width="2"/>
<g clip-path="url(#clip0_1_341)">
<path d="M30 16.9087C24.668 16.9087 20.2734 21.2446 20.2734 26.6353C20.2734 34.311 28.9453 44.3892 29.3555 44.8579L30 45.6196L30.6445 44.8579C31.0547 44.3892 39.7266 34.311 39.7266 26.6353C39.7266 21.2446 35.332 16.9087 30 16.9087ZM30 42.8657C27.9492 40.3462 22.0312 32.4946 22.0312 26.6353C22.0312 22.2407 25.6055 18.6665 30 18.6665C34.3945 18.6665 37.9688 22.2407 37.9688 26.6353C37.9688 32.4946 32.0508 40.3462 30 42.8657ZM30 21.5962C27.0703 21.5962 24.7266 23.9399 24.7266 26.8696C24.7266 29.7993 27.0703 32.1431 30 32.1431C32.9297 32.1431 35.2734 29.7993 35.2734 26.8696C35.2734 23.9399 32.9297 21.5962 30 21.5962ZM30 30.3853C28.0664 30.3853 26.4844 28.8032 26.4844 26.8696C26.4844 24.936 28.0664 23.354 30 23.354C31.9336 23.354 33.5156 24.936 33.5156 26.8696C33.5156 28.8032 31.9336 30.3853 30 30.3853Z" fill="#8256FF"/>
</g>
<defs>
<clipPath id="clip0_1_341">
<rect width="30" height="30" fill="white" transform="matrix(1 0 0 -1 15 46.0298)"/>
</clipPath>
</defs>
</svg>
